<?xml version="1.0" encoding="utf-8"?>
<svg xmlns="http://www.w3.org/2000/svg"
	xmlns:xlink="http://www.w3.org/1999/xlink"
	width="30px" height="30px" viewBox="0 0 30 30">
<path fillRule="evenodd" d="M 25.66 4.32C 26.04 4.34 26.41 4.35 26.78 4.36 27.09 4.36 27.5 4.34 27.74 4.4 28.25 4.4 28.75 4.4 29.26 4.4 29.66 4.55 29.97 4.86 30.02 5.36 30 5.36 29.99 5.36 29.98 5.36 29.96 5.44 29.95 5.52 29.94 5.6 29.92 5.6 29.91 5.6 29.9 5.6 29.9 5.64 29.9 5.68 29.9 5.72 29.87 5.74 29.84 5.75 29.82 5.76 29.82 5.79 29.82 5.82 29.82 5.84 29.5 6.15 29.18 6.46 28.86 6.76 27.93 7.71 26.99 8.66 26.06 9.61 24.64 9.61 23.21 9.61 21.79 9.61 21.47 9.94 21.15 10.27 20.83 10.6 20.76 10.66 20.7 10.71 20.63 10.77 20.35 11.15 20 11.43 19.67 11.77 19.23 12.22 18.79 12.67 18.36 13.13 18.09 13.32 17.86 13.54 17.64 13.77 16.96 14.46 16.28 15.15 15.6 15.85 15.56 15.85 15.52 15.85 15.48 15.85 15.47 15.87 15.45 15.9 15.44 15.93 15.37 15.94 15.31 15.95 15.24 15.97 15.24 15.98 15.24 15.99 15.24 16.01 15.01 16.08 14.59 15.92 14.48 15.85 14.42 15.77 14.35 15.69 14.28 15.61 14.26 15.59 14.23 15.58 14.2 15.57 14.19 15.51 14.18 15.46 14.16 15.41 14.15 15.41 14.14 15.41 14.12 15.41 14.12 15.38 14.12 15.35 14.12 15.33 14.11 15.33 14.1 15.33 14.08 15.33 14.08 15.3 14.08 15.27 14.08 15.25 14.07 15.25 14.06 15.25 14.04 15.25 14.04 15.09 14.04 14.93 14.04 14.77 14.06 14.77 14.07 14.77 14.08 14.77 14.1 14.71 14.11 14.66 14.12 14.61 14.14 14.61 14.15 14.61 14.16 14.61 14.16 14.57 14.16 14.53 14.16 14.49 14.19 14.47 14.22 14.46 14.24 14.45 14.24 14.42 14.24 14.39 14.24 14.37 14.26 14.37 14.27 14.37 14.28 14.37 14.34 14.29 14.37 14.27 14.4 14.17 14.43 14.17 14.45 14.17 14.48 14.17 14.51 14.04 14.56 14 14.68 13.97 14.68 13.94 14.68 13.91 14.68 13.89 14.71 13.89 14.73 13.89 14.76 13.89 14.76 13.86 14.76 13.83 14.76 13.81 14.79 13.81 14.81 13.81 14.84 13.81 14.84 13.78 14.84 13.75 14.84 13.73 14.87 13.73 14.89 13.73 14.92 13.73 14.92 13.7 14.92 13.67 14.92 13.65 14.95 13.65 14.97 13.65 15 13.65 15.03 13.54 15.01 13.56 15.12 13.53 15.12 13.5 15.12 13.47 15.12 13.45 15.15 13.45 15.17 13.45 15.2 13.45 15.2 13.42 15.2 13.39 15.2 13.37 15.23 13.37 15.25 13.37 15.28 13.37 15.28 13.34 15.28 13.31 15.28 13.29 15.31 13.29 15.33 13.29 15.36 13.29 15.36 13.26 15.36 13.23 15.36 13.21 15.39 13.21 15.41 13.21 15.44 13.21 15.44 13.18 15.44 13.15 15.44 13.13 15.47 13.13 15.49 13.13 15.52 13.13 15.55 13.02 15.53 13.04 15.64 13.01 15.64 12.98 15.64 12.95 15.64 12.93 15.67 12.93 15.69 12.93 15.72 12.93 15.72 12.9 15.72 12.87 15.72 12.85 15.75 12.85 15.77 12.85 15.8 12.85 15.8 12.82 15.8 12.79 15.8 12.77 15.83 12.77 15.85 12.77 15.88 12.77 15.88 12.74 15.88 12.71 15.88 12.69 15.91 12.69 15.93 12.69 15.96 12.69 15.96 12.66 15.96 12.63 15.96 12.61 15.99 12.61 16.01 12.61 16.04 12.61 16.07 12.49 16.05 12.52 16.16 12.49 16.16 12.46 16.16 12.43 16.16 12.41 16.19 12.41 16.21 12.41 16.24 12.41 16.24 12.38 16.24 12.35 16.24 12.33 16.27 12.33 16.29 12.33 16.32 12.33 16.32 12.3 16.32 12.27 16.32 12.25 16.35 12.25 16.37 12.25 16.4 12.25 16.4 12.22 16.4 12.19 16.4 12.17 16.43 12.17 16.45 12.17 16.48 12.17 16.48 12.14 16.48 12.11 16.48 12.09 16.5 12.09 16.53 12.09 16.56 12.09 16.59 11.97 16.57 12 16.68 11.97 16.68 11.94 16.68 11.91 16.68 11.89 16.7 11.89 16.73 11.89 16.76 11.89 16.76 11.86 16.76 11.83 16.76 11.81 16.78 11.81 16.81 11.81 16.84 11.81 16.89 11.61 17.25 11.35 17.4 11.21 17.4 11.19 17.4 11.18 17.4 11.17 17.84 10.74 18.28 10.31 18.71 9.88 18.85 9.75 19.08 9.42 19.27 9.36 19.27 9.34 19.27 9.31 19.27 9.28 19.3 9.28 19.33 9.28 19.35 9.28 19.35 9.26 19.35 9.23 19.35 9.2 19.38 9.2 19.41 9.2 19.43 9.2 19.43 9.18 19.43 9.15 19.43 9.13 19.46 9.13 19.49 9.13 19.51 9.13 19.54 9.01 19.52 9.04 19.63 9 19.63 8.98 19.63 8.95 19.63 8.92 19.66 8.92 19.69 8.92 19.71 8.92 19.71 8.9 19.71 8.87 19.71 8.84 19.74 8.84 19.77 8.84 19.79 8.84 19.79 8.82 19.79 8.79 19.79 8.76 19.82 8.76 19.85 8.76 19.87 8.76 19.87 8.74 19.87 8.71 19.87 8.68 19.9 8.68 19.93 8.68 19.95 8.68 19.95 8.66 19.95 8.63 19.95 8.6 20.06 8.58 20.04 8.59 20.07 8.48 20.1 8.48 20.13 8.48 20.15 8.48 20.15 8.46 20.15 8.43 20.15 8.4 20.18 8.4 20.21 8.4 20.23 8.4 20.23 8.38 20.23 8.35 20.23 8.32 20.26 8.32 20.29 8.32 20.31 8.32 20.31 8.3 20.31 8.27 20.31 8.24 20.34 8.24 20.37 8.24 20.39 8.24 20.47 7.8 20.43 7.19 20.43 6.68 20.43 5.75 20.43 4.82 20.43 3.88 20.53 3.83 20.56 3.73 20.63 3.68 20.97 3.44 21.22 3.14 21.51 2.84 22.19 2.18 22.87 1.51 23.55 0.84 23.73 0.64 23.92 0.44 24.11 0.24 24.13 0.24 24.16 0.24 24.19 0.24 24.2 0.22 24.21 0.19 24.23 0.16 24.25 0.16 24.28 0.16 24.31 0.16 24.32 0.14 24.33 0.11 24.35 0.08 24.41 0.04 24.73-0.04 24.86 0 24.86 0.02 24.86 0.03 24.86 0.04 24.9 0.04 24.94 0.04 24.98 0.04 24.98 0.06 24.98 0.07 24.98 0.08 25.01 0.08 25.04 0.08 25.06 0.08 25.08 0.11 25.09 0.14 25.1 0.16 25.14 0.16 25.18 0.16 25.22 0.16 25.22 0.18 25.22 0.19 25.22 0.2 25.3 0.27 25.38 0.34 25.46 0.4 25.46 0.43 25.46 0.46 25.46 0.48 25.48 0.48 25.49 0.48 25.5 0.48 25.5 0.51 25.5 0.54 25.5 0.56 25.52 0.56 25.53 0.56 25.54 0.56 25.54 0.6 25.54 0.64 25.54 0.68 25.56 0.68 25.57 0.68 25.58 0.68 25.58 0.91 25.58 1.14 25.58 1.36 25.65 1.61 25.55 2.03 25.62 2.28 25.64 2.28 25.65 2.28 25.66 2.28 25.66 2.96 25.66 3.64 25.66 4.32ZM 18.32 6.08C 18.2 6.04 18.08 6 17.96 5.96 17.96 5.95 17.96 5.94 17.96 5.92 17.88 5.91 17.8 5.9 17.72 5.88 17.72 5.87 17.72 5.86 17.72 5.84 17.69 5.84 17.66 5.84 17.64 5.84 17.64 5.83 17.64 5.82 17.64 5.8 17.56 5.79 17.48 5.78 17.4 5.76 17.4 5.75 17.4 5.74 17.4 5.72 17.36 5.72 17.32 5.72 17.28 5.72 17.28 5.71 17.28 5.7 17.28 5.68 17.18 5.67 17.09 5.66 17 5.64 17 5.63 17 5.62 17 5.6 16.9 5.59 16.81 5.58 16.72 5.56 16.72 5.55 16.72 5.54 16.72 5.52 16.2 5.43 15.68 5.34 15.16 5.24 14.99 5.24 14.81 5.24 14.64 5.24 14.64 5.23 14.64 5.22 14.64 5.2 14.43 5.15 13.52 5.2 13.36 5.24 13.19 5.24 13.02 5.24 12.84 5.24 12.84 5.26 12.84 5.27 12.84 5.28 12.74 5.28 12.63 5.28 12.52 5.28 12.52 5.3 12.52 5.31 12.52 5.32 12.43 5.32 12.34 5.32 12.25 5.32 12.25 5.34 12.25 5.35 12.25 5.36 12.18 5.36 12.11 5.36 12.05 5.36 12.05 5.38 12.05 5.39 12.05 5.4 11.97 5.4 11.89 5.4 11.81 5.4 11.81 5.42 11.81 5.43 11.81 5.44 11.75 5.44 11.7 5.44 11.65 5.44 11.65 5.46 11.65 5.47 11.65 5.48 11.53 5.5 11.41 5.51 11.29 5.52 10.81 5.68 10.33 5.84 9.85 6 9.85 6.02 9.85 6.03 9.85 6.04 9.8 6.06 9.74 6.07 9.69 6.08 9.69 6.1 9.69 6.11 9.69 6.12 9.66 6.12 9.64 6.12 9.61 6.12 9.61 6.14 9.61 6.15 9.61 6.16 9.57 6.16 9.53 6.16 9.49 6.16 9.49 6.18 9.49 6.19 9.49 6.2 9.41 6.23 9.33 6.26 9.25 6.28 9.25 6.3 9.25 6.31 9.25 6.32 9.22 6.32 9.2 6.32 9.17 6.32 9.17 6.34 9.17 6.35 9.17 6.36 9.14 6.36 9.12 6.36 9.09 6.36 9.09 6.38 9.09 6.39 9.09 6.4 9.01 6.43 8.93 6.46 8.85 6.48 8.84 6.51 8.82 6.54 8.81 6.56 8.73 6.59 8.65 6.62 8.57 6.64 8.56 6.67 8.54 6.7 8.53 6.72 8.48 6.74 8.42 6.75 8.37 6.76 8.36 6.79 8.34 6.82 8.33 6.84 8.28 6.86 8.23 6.87 8.17 6.88 8.17 6.9 8.17 6.91 8.17 6.92 8.13 6.94 8.09 6.95 8.05 6.96 8.04 6.99 8.03 7.02 8.01 7.04 7.99 7.04 7.96 7.04 7.93 7.04 7.91 7.08 7.88 7.12 7.85 7.16 7.83 7.16 7.8 7.16 7.77 7.16 7.76 7.19 7.75 7.22 7.73 7.24 7.71 7.24 7.68 7.24 7.65 7.24 7.63 7.28 7.6 7.32 7.57 7.36 7.55 7.36 7.52 7.36 7.49 7.36 7.47 7.4 7.44 7.44 7.41 7.48 7.39 7.48 7.36 7.48 7.33 7.48 7.29 7.54 7.25 7.59 7.21 7.64 7.19 7.64 7.16 7.64 7.13 7.64 7.07 7.72 7 7.8 6.93 7.89 6.91 7.89 6.88 7.89 6.85 7.89 6.76 7.99 6.67 8.1 6.57 8.2 6.35 8.42 6.12 8.63 5.9 8.84 5.9 8.87 5.9 8.9 5.9 8.92 5.82 8.99 5.74 9.06 5.66 9.13 5.66 9.15 5.66 9.18 5.66 9.2 5.6 9.24 5.55 9.28 5.5 9.33 5.5 9.35 5.5 9.38 5.5 9.41 5.46 9.43 5.42 9.46 5.38 9.49 5.38 9.51 5.38 9.54 5.38 9.57 5.34 9.59 5.3 9.62 5.26 9.65 5.26 9.67 5.26 9.7 5.26 9.72 5.23 9.74 5.2 9.75 5.18 9.77 5.18 9.79 5.18 9.82 5.18 9.85 5.14 9.87 5.1 9.9 5.06 9.93 5.06 9.95 5.06 9.98 5.06 10.01 5.03 10.02 5 10.03 4.98 10.05 4.98 10.07 4.98 10.1 4.98 10.13 4.95 10.14 4.92 10.15 4.9 10.17 4.88 10.22 4.87 10.27 4.86 10.32 4.83 10.34 4.8 10.35 4.78 10.37 4.76 10.42 4.75 10.47 4.74 10.53 4.71 10.54 4.68 10.55 4.66 10.57 4.63 10.65 4.6 10.72 4.58 10.8 4.55 10.82 4.52 10.83 4.5 10.85 4.5 10.87 4.5 10.9 4.5 10.93 4.48 10.93 4.47 10.93 4.46 10.93 4.46 10.95 4.46 10.98 4.46 11.01 4.44 11.01 4.43 11.01 4.42 11.01 4.42 11.03 4.42 11.06 4.42 11.09 4.4 11.09 4.39 11.09 4.38 11.09 4.38 11.11 4.38 11.14 4.38 11.17 4.36 11.17 4.35 11.17 4.34 11.17 4.34 11.19 4.34 11.22 4.34 11.25 4.32 11.25 4.31 11.25 4.3 11.25 4.27 11.33 4.25 11.41 4.22 11.49 4.21 11.49 4.19 11.49 4.18 11.49 4.18 11.52 4.18 11.57 4.18 11.61 4.17 11.61 4.15 11.61 4.14 11.61 4.14 11.63 4.14 11.66 4.14 11.69 4.13 11.69 4.11 11.69 4.1 11.69 4.1 11.71 4.1 11.74 4.1 11.77 4.09 11.77 4.07 11.77 4.06 11.77 4.06 11.79 4.06 11.82 4.06 11.85 4.05 11.85 4.03 11.85 4.02 11.85 4.02 11.89 4.02 11.93 4.02 11.97 4.01 11.97 3.99 11.97 3.98 11.97 3.98 11.99 3.98 12.02 3.98 12.05 3.97 12.05 3.95 12.05 3.94 12.05 3.93 12.13 3.91 12.21 3.9 12.29 3.89 12.29 3.87 12.29 3.86 12.29 3.86 12.31 3.86 12.34 3.86 12.37 3.85 12.37 3.83 12.37 3.82 12.37 3.69 12.85 3.55 13.33 3.42 13.81 3.39 14.05 3.37 14.29 3.34 14.53 3.33 14.53 3.31 14.53 3.3 14.53 3.3 14.63 3.3 14.74 3.3 14.85 3.29 14.85 3.27 14.85 3.26 14.85 3.26 15.02 3.26 15.19 3.26 15.37 3.25 15.37 3.23 15.37 3.22 15.37 3.16 15.57 3.22 16.49 3.26 16.65 3.26 16.82 3.26 16.99 3.26 17.17 3.27 17.17 3.29 17.17 3.3 17.17 3.3 17.27 3.3 17.38 3.3 17.49 3.31 17.49 3.33 17.49 3.34 17.49 3.34 17.58 3.34 17.67 3.34 17.77 3.35 17.77 3.37 17.77 3.38 17.77 3.38 17.83 3.38 17.9 3.38 17.97 3.39 17.97 3.41 17.97 3.42 17.97 3.42 18.05 3.42 18.13 3.42 18.21 3.43 18.21 3.45 18.21 3.46 18.21 3.46 18.26 3.46 18.31 3.46 18.37 3.47 18.37 3.49 18.37 3.5 18.37 3.5 18.43 3.5 18.5 3.5 18.57 3.51 18.57 3.53 18.57 3.54 18.57 3.54 18.62 3.54 18.67 3.54 18.73 3.55 18.73 3.57 18.73 3.58 18.73 3.59 18.82 3.61 18.91 3.62 19.01 3.63 19.01 3.65 19.01 3.66 19.01 3.66 19.05 3.66 19.09 3.66 19.13 3.67 19.13 3.69 19.13 3.7 19.13 3.7 19.18 3.7 19.23 3.7 19.29 3.71 19.29 3.73 19.29 3.74 19.29 3.74 19.33 3.74 19.37 3.74 19.41 3.75 19.41 3.77 19.41 3.78 19.41 3.78 19.45 3.78 19.49 3.78 19.53 3.79 19.53 3.81 19.53 3.82 19.53 3.82 19.57 3.82 19.61 3.82 19.65 3.83 19.65 3.85 19.65 3.86 19.65 3.86 19.67 3.86 19.7 3.86 19.73 3.87 19.73 3.89 19.73 3.9 19.73 3.91 19.81 3.93 19.89 3.94 19.97 3.95 19.97 3.97 19.97 3.98 19.97 3.98 19.99 3.98 20.02 3.98 20.05 3.99 20.05 4.01 20.05 4.02 20.05 4.02 20.09 4.02 20.13 4.02 20.17 4.03 20.17 4.05 20.17 4.06 20.17 4.07 20.22 4.09 20.27 4.1 20.33 4.11 20.33 4.13 20.33 4.14 20.33 4.14 20.35 4.14 20.38 4.14 20.41 4.15 20.41 4.17 20.41 4.18 20.41 4.18 20.45 4.18 20.49 4.18 20.53 4.19 20.53 4.21 20.53 4.22 20.53 4.25 20.61 4.27 20.69 4.3 20.77 4.31 20.77 4.32 20.77 4.34 20.77 4.34 20.79 4.34 20.82 4.34 20.85 4.35 20.85 4.36 20.85 4.38 20.85 4.38 20.87 4.38 20.9 4.38 20.93 4.39 20.93 4.4 20.93 4.42 20.93 4.44 21.01 4.47 21.09 4.5 21.17 4.52 21.18 4.55 21.19 4.58 21.21 4.6 21.29 4.63 21.37 4.66 21.45 4.68 21.46 4.71 21.47 4.74 21.49 4.75 21.54 4.76 21.59 4.78 21.65 4.8 21.66 4.83 21.67 4.86 21.69 4.87 21.74 4.88 21.79 4.9 21.85 4.92 21.86 4.95 21.87 4.98 21.89 4.98 21.91 4.98 21.94 4.98 21.97 4.99 21.97 5 21.97 5.02 21.97 5.03 22.01 5.04 22.05 5.06 22.09 5.08 22.1 5.11 22.11 5.14 22.13 5.14 22.15 5.14 22.18 5.14 22.21 5.18 22.23 5.22 22.26 5.26 22.29 5.26 22.31 5.26 22.34 5.26 22.37 5.3 22.39 5.34 22.42 5.38 22.45 5.38 22.47 5.38 22.5 5.38 22.53 5.42 22.55 5.46 22.58 5.5 22.61 5.5 22.63 5.5 22.66 5.5 22.69 5.55 22.73 5.6 22.77 5.66 22.81 5.66 22.83 5.66 22.86 5.66 22.89 5.74 22.95 5.82 23.02 5.9 23.09 5.9 23.11 5.9 23.14 5.9 23.17 6.12 23.38 6.35 23.59 6.57 23.81 6.67 23.91 6.76 24.02 6.85 24.13 6.88 24.13 6.91 24.13 6.93 24.13 7 24.21 7.07 24.29 7.13 24.37 7.16 24.37 7.19 24.37 7.21 24.37 7.25 24.42 7.29 24.47 7.33 24.53 7.36 24.53 7.39 24.53 7.41 24.53 7.44 24.57 7.47 24.61 7.49 24.65 7.52 24.65 7.55 24.65 7.57 24.65 7.6 24.69 7.63 24.73 7.65 24.77 7.68 24.77 7.71 24.77 7.73 24.77 7.76 24.81 7.79 24.85 7.81 24.89 7.84 24.89 7.87 24.89 7.89 24.89 7.91 24.91 7.92 24.94 7.93 24.97 7.96 24.97 7.99 24.97 8.01 24.97 8.03 24.99 8.04 25.02 8.05 25.05 8.09 25.06 8.13 25.07 8.17 25.09 8.17 25.1 8.17 25.11 8.17 25.13 8.23 25.14 8.28 25.15 8.33 25.17 8.34 25.19 8.36 25.22 8.37 25.25 8.42 25.26 8.48 25.27 8.53 25.29 8.54 25.31 8.56 25.34 8.57 25.37 8.65 25.39 8.73 25.42 8.81 25.45 8.82 25.47 8.84 25.5 8.85 25.53 8.88 25.53 8.9 25.53 8.93 25.53 8.93 25.54 8.93 25.55 8.93 25.57 8.96 25.57 8.98 25.57 9.01 25.57 9.01 25.58 9.01 25.59 9.01 25.61 9.04 25.61 9.06 25.61 9.09 25.61 9.09 25.62 9.09 25.63 9.09 25.65 9.12 25.65 9.14 25.65 9.17 25.65 9.17 25.66 9.17 25.67 9.17 25.69 9.2 25.69 9.22 25.69 9.25 25.69 9.25 25.7 9.25 25.71 9.25 25.73 9.28 25.73 9.3 25.73 9.33 25.73 9.33 25.74 9.33 25.75 9.33 25.77 9.41 25.79 9.49 25.82 9.57 25.85 9.57 25.86 9.57 25.87 9.57 25.89 9.64 25.9 9.7 25.91 9.77 25.93 9.77 25.94 9.77 25.95 9.77 25.97 9.8 25.97 9.82 25.97 9.85 25.97 9.85 25.98 9.85 25.99 9.85 26.01 9.89 26.01 9.93 26.01 9.97 26.01 9.97 26.02 9.97 26.03 9.97 26.05 10 26.05 10.02 26.05 10.05 26.05 10.05 26.06 10.05 26.07 10.05 26.09 10.13 26.1 10.21 26.11 10.29 26.13 10.29 26.14 10.29 26.15 10.29 26.17 10.32 26.17 10.34 26.17 10.37 26.17 10.37 26.18 10.37 26.19 10.37 26.21 10.49 26.23 10.61 26.26 10.73 26.29 10.73 26.3 10.73 26.31 10.73 26.33 10.78 26.33 10.83 26.33 10.89 26.33 10.89 26.34 10.89 26.35 10.89 26.37 10.93 26.37 10.97 26.37 11.01 26.37 11.01 26.38 11.01 26.39 11.01 26.41 11.1 26.42 11.19 26.43 11.29 26.45 11.29 26.46 11.29 26.47 11.29 26.49 11.34 26.49 11.39 26.49 11.45 26.49 11.45 26.5 11.45 26.51 11.45 26.53 11.57 26.54 11.69 26.55 11.81 26.57 11.81 26.58 11.81 26.59 11.81 26.61 11.89 26.61 11.97 26.61 12.05 26.61 12.05 26.62 12.05 26.63 12.05 26.65 12.11 26.65 12.18 26.65 12.25 26.65 12.25 26.66 12.25 26.67 12.25 26.69 12.34 26.69 12.43 26.69 12.52 26.69 12.52 26.7 12.52 26.71 12.52 26.73 12.8 26.74 13.08 26.75 13.36 26.77 13.36 26.78 13.36 26.79 13.36 26.81 13.57 26.86 14.49 26.81 14.64 26.77 14.92 26.75 15.2 26.74 15.48 26.73 15.48 26.71 15.48 26.7 15.48 26.69 15.57 26.69 15.67 26.69 15.76 26.69 15.76 26.67 15.76 26.66 15.76 26.65 15.83 26.65 15.89 26.65 15.96 26.65 15.96 26.63 15.96 26.62 15.96 26.61 16.04 26.61 16.12 26.61 16.2 26.61 16.2 26.59 16.2 26.58 16.2 26.57 16.25 26.57 16.31 26.57 16.36 26.57 16.36 26.55 16.36 26.54 16.36 26.53 16.48 26.51 16.6 26.5 16.72 26.49 16.72 26.47 16.72 26.46 16.72 26.45 16.76 26.45 16.8 26.45 16.84 26.45 16.84 26.43 16.84 26.42 16.84 26.41 16.89 26.41 16.94 26.41 17 26.41 17 26.39 17 26.38 17 26.37 17.04 26.37 17.08 26.37 17.12 26.37 17.12 26.35 17.12 26.34 17.12 26.33 17.17 26.33 17.22 26.33 17.28 26.33 17.28 26.31 17.28 26.3 17.28 26.29 17.32 26.29 17.36 26.29 17.4 26.29 17.4 26.27 17.4 26.26 17.4 26.25 17.44 26.25 17.48 26.25 17.52 26.25 17.52 26.23 17.52 26.22 17.52 26.21 17.56 26.21 17.6 26.21 17.64 26.21 17.64 26.19 17.64 26.18 17.64 26.17 17.66 26.17 17.69 26.17 17.72 26.17 17.72 26.15 17.72 26.14 17.72 26.13 17.8 26.11 17.88 26.1 17.96 26.09 17.96 26.07 17.96 26.06 17.96 26.05 17.98 26.05 18.01 26.05 18.04 26.05 18.04 26.03 18.04 26.02 18.04 26.01 18.08 26.01 18.12 26.01 18.16 26.01 18.16 25.99 18.16 25.98 18.16 25.97 18.21 25.95 18.26 25.94 18.32 25.93 18.32 25.91 18.32 25.9 18.32 25.89 18.34 25.89 18.37 25.89 18.4 25.89 18.4 25.87 18.4 25.86 18.4 25.85 18.44 25.85 18.48 25.85 18.52 25.85 18.52 25.83 18.52 25.82 18.52 25.81 18.59 25.78 18.67 25.75 18.75 25.73 18.75 25.71 18.75 25.7 18.75 25.69 18.78 25.69 18.81 25.69 18.83 25.69 18.83 25.67 18.83 25.66 18.83 25.65 18.86 25.65 18.89 25.65 18.91 25.65 18.91 25.63 18.91 25.62 18.91 25.61 18.99 25.58 19.07 25.55 19.15 25.53 19.17 25.5 19.18 25.47 19.19 25.45 19.27 25.42 19.35 25.39 19.43 25.37 19.45 25.34 19.46 25.31 19.47 25.29 19.53 25.27 19.58 25.26 19.63 25.25 19.65 25.22 19.66 25.19 19.67 25.17 19.73 25.15 19.78 25.14 19.83 25.13 19.85 25.1 19.86 25.07 19.87 25.05 19.9 25.05 19.93 25.05 19.95 25.05 19.95 25.03 19.95 25.02 19.95 25.01 19.99 24.99 20.03 24.98 20.07 24.97 20.09 24.94 20.1 24.91 20.11 24.89 20.14 24.89 20.17 24.89 20.19 24.89 20.21 24.86 20.22 24.83 20.23 24.81 20.27 24.79 20.31 24.78 20.35 24.77 20.38 24.73 20.41 24.69 20.43 24.65 20.46 24.65 20.49 24.65 20.51 24.65 20.54 24.61 20.57 24.57 20.59 24.53 20.62 24.53 20.64 24.53 20.67 24.53 20.71 24.47 20.75 24.42 20.79 24.37 20.82 24.37 20.84 24.37 20.87 24.37 20.94 24.29 21 24.21 21.07 24.13 21.1 24.13 21.12 24.13 21.15 24.13 21.28 23.98 21.42 23.83 21.55 23.69 21.74 23.51 21.92 23.34 22.11 23.17 22.11 23.14 22.11 23.11 22.11 23.09 22.19 23.02 22.27 22.95 22.35 22.89 22.35 22.86 22.35 22.83 22.35 22.81 22.4 22.77 22.46 22.73 22.51 22.69 22.51 22.66 22.51 22.63 22.51 22.61 22.55 22.58 22.59 22.55 22.63 22.53 22.63 22.5 22.63 22.47 22.63 22.45 22.67 22.42 22.71 22.39 22.75 22.37 22.76 22.33 22.77 22.29 22.79 22.25 22.81 22.23 22.84 22.22 22.87 22.21 22.87 22.18 22.87 22.15 22.87 22.13 22.89 22.11 22.92 22.1 22.95 22.09 22.96 22.05 22.97 22.01 22.99 21.97 23 21.97 23.01 21.97 23.03 21.97 23.03 21.94 23.03 21.91 23.03 21.89 23.05 21.87 23.08 21.86 23.11 21.85 23.12 21.79 23.13 21.74 23.15 21.69 23.17 21.67 23.2 21.66 23.23 21.65 23.24 21.59 23.25 21.54 23.27 21.49 23.29 21.47 23.32 21.46 23.35 21.45 23.37 21.37 23.4 21.29 23.43 21.21 23.45 21.19 23.48 21.18 23.51 21.17 23.51 21.14 23.51 21.11 23.51 21.09 23.52 21.09 23.53 21.09 23.55 21.09 23.55 21.06 23.55 21.03 23.55 21.01 23.56 21.01 23.57 21.01 23.59 21.01 23.59 20.98 23.59 20.95 23.59 20.93 23.6 20.93 23.61 20.93 23.63 20.93 23.63 20.9 23.63 20.87 23.63 20.85 23.64 20.85 23.65 20.85 23.67 20.85 23.67 20.82 23.67 20.79 23.67 20.77 23.68 20.77 23.69 20.77 23.71 20.77 23.71 20.74 23.71 20.71 23.71 20.69 23.72 20.69 23.73 20.69 23.75 20.69 23.77 20.61 23.8 20.53 23.83 20.45 23.84 20.45 23.85 20.45 23.87 20.45 23.87 20.41 23.87 20.37 23.87 20.33 23.88 20.33 23.89 20.33 23.91 20.33 23.92 20.27 23.93 20.22 23.95 20.17 23.96 20.17 23.97 20.17 23.99 20.17 24.15 19.69 24.31 19.21 24.47 18.73 24.48 18.61 24.49 18.49 24.51 18.37 24.52 18.37 24.53 18.37 24.55 18.37 24.55 18.31 24.55 18.26 24.55 18.21 24.56 18.21 24.57 18.21 24.59 18.21 24.59 18.13 24.59 18.05 24.59 17.97 24.6 17.97 24.61 17.97 24.63 17.97 24.63 17.9 24.63 17.83 24.63 17.77 24.64 17.77 24.65 17.77 24.66 17.77 24.69 17.53 24.72 17.29 24.74 17.05 24.74 16.91 24.74 16.78 24.74 16.65 24.76 16.65 24.77 16.65 24.78 16.65 24.84 16.44 24.79 15.52 24.74 15.37 24.73 15.09 24.72 14.81 24.7 14.53 24.69 14.53 24.68 14.53 24.66 14.53 24.66 14.43 24.66 14.34 24.66 14.25 24.65 14.25 24.64 14.25 24.63 14.25 24.63 14.18 24.63 14.11 24.63 14.05 24.61 14.05 24.6 14.05 24.59 14.05 24.59 13.97 24.59 13.89 24.59 13.81 24.57 13.81 24.56 13.81 24.55 13.81 24.53 13.69 24.52 13.57 24.51 13.45 24.49 13.45 24.48 13.45 24.47 13.45 24.47 13.39 24.47 13.34 24.47 13.29 24.45 13.29 24.44 13.29 24.43 13.29 24.41 13.19 24.4 13.1 24.39 13.01 24.37 13.01 24.36 13.01 24.35 13.01 24.35 12.97 24.35 12.93 24.35 12.89 24.33 12.89 24.32 12.89 24.31 12.89 24.31 12.83 24.31 12.78 24.31 12.73 24.29 12.73 24.28 12.73 24.27 12.73 24.27 12.69 24.27 12.65 24.27 12.61 24.25 12.61 24.24 12.61 24.23 12.61 24.23 12.57 24.23 12.53 24.23 12.49 24.21 12.49 24.2 12.49 24.19 12.49 24.19 12.45 24.19 12.41 24.19 12.37 24.17 12.37 24.16 12.37 24.15 12.37 24.15 12.34 24.15 12.31 24.15 12.29 24.13 12.29 24.12 12.29 24.11 12.29 24.09 12.21 24.08 12.13 24.07 12.05 24.05 12.05 24.04 12.05 24.03 12.05 23.99 11.93 23.95 11.81 23.91 11.69 24.74 11.69 25.82 11.78 26.46 11.57 26.64 11.54 26.81 11.51 26.98 11.49 26.98 11.47 26.98 11.46 26.98 11.45 27.02 11.43 27.06 11.42 27.1 11.41 27.1 11.39 27.1 11.38 27.1 11.37 27.18 11.35 27.15 11.39 27.18 11.41 27.32 11.53 27.31 11.81 27.38 12.01 27.56 12.46 27.63 13.03 27.78 13.53 27.79 13.7 27.81 13.87 27.82 14.05 27.83 14.05 27.85 14.05 27.86 14.05 27.86 14.14 27.86 14.23 27.86 14.33 27.87 14.33 27.89 14.33 27.9 14.33 27.9 14.46 27.9 14.59 27.9 14.73 27.91 14.73 27.93 14.73 27.94 14.73 27.94 14.9 27.94 15.07 27.94 15.25 28.02 15.55 28.03 16.46 27.94 16.77 27.94 16.94 27.94 17.11 27.94 17.29 27.93 17.29 27.91 17.29 27.9 17.29 27.9 17.42 27.9 17.55 27.9 17.69 27.89 17.69 27.87 17.69 27.86 17.69 27.86 17.78 27.86 17.87 27.86 17.97 27.85 17.97 27.83 17.97 27.82 17.97 27.82 18.06 27.82 18.15 27.82 18.25 27.76 18.43 27.72 18.7 27.66 18.89 27.66 18.95 27.66 19.02 27.66 19.09 27.65 19.09 27.63 19.09 27.62 19.09 27.62 19.14 27.62 19.19 27.62 19.25 27.61 19.25 27.59 19.25 27.58 19.25 27.58 19.3 27.58 19.35 27.58 19.41 27.57 19.41 27.55 19.41 27.54 19.41 27.54 19.46 27.54 19.51 27.54 19.57 27.53 19.57 27.51 19.57 27.5 19.57 27.5 19.62 27.5 19.67 27.5 19.73 27.49 19.73 27.47 19.73 27.46 19.73 27.46 19.78 27.46 19.83 27.46 19.89 27.45 19.89 27.43 19.89 27.42 19.89 27.42 19.93 27.42 19.97 27.42 20.01 27.41 20.01 27.39 20.01 27.38 20.01 27.38 20.05 27.38 20.09 27.38 20.13 27.37 20.13 27.35 20.13 27.34 20.13 27.34 20.17 27.34 20.21 27.34 20.25 27.33 20.25 27.31 20.25 27.3 20.25 27.29 20.34 27.27 20.43 27.26 20.53 27.25 20.53 27.23 20.53 27.22 20.53 27.22 20.55 27.22 20.58 27.22 20.61 27.21 20.61 27.19 20.61 27.18 20.61 27.15 20.73 27.13 20.85 27.1 20.97 27.09 20.97 27.07 20.97 27.06 20.97 27.06 20.99 27.06 21.02 27.06 21.05 27.05 21.05 27.03 21.05 27.02 21.05 27.02 21.09 27.02 21.13 27.02 21.17 27.01 21.17 26.99 21.17 26.98 21.17 26.97 21.23 26.95 21.3 26.94 21.37 26.93 21.37 26.91 21.37 26.9 21.37 26.9 21.39 26.9 21.42 26.9 21.45 26.89 21.45 26.87 21.45 26.86 21.45 26.86 21.49 26.86 21.53 26.86 21.57 26.85 21.57 26.83 21.57 26.82 21.57 26.79 21.65 26.77 21.73 26.74 21.81 26.73 21.81 26.72 21.81 26.7 21.81 26.7 21.83 26.7 21.86 26.7 21.89 26.69 21.89 26.68 21.89 26.66 21.89 26.66 21.93 26.66 21.97 26.66 22.01 26.65 22.01 26.64 22.01 26.62 22.01 26.6 22.09 26.57 22.17 26.54 22.25 26.53 22.25 26.52 22.25 26.5 22.25 26.5 22.27 26.5 22.3 26.5 22.33 26.49 22.33 26.48 22.33 26.46 22.33 26.44 22.41 26.41 22.49 26.38 22.57 26.36 22.58 26.33 22.59 26.3 22.61 26.3 22.63 26.3 22.66 26.3 22.69 26.29 22.69 26.28 22.69 26.26 22.69 26.26 22.71 26.26 22.74 26.26 22.77 26.25 22.77 26.24 22.77 26.22 22.77 26.22 22.79 26.22 22.82 26.22 22.85 26.21 22.85 26.2 22.85 26.18 22.85 26.18 22.87 26.18 22.9 26.18 22.93 26.16 22.94 26.13 22.95 26.1 22.97 26.08 23.05 26.05 23.13 26.02 23.21 26 23.22 25.97 23.23 25.94 23.25 25.94 23.27 25.94 23.3 25.94 23.33 25.92 23.34 25.89 23.35 25.86 23.37 25.85 23.42 25.84 23.47 25.82 23.53 25.8 23.54 25.77 23.55 25.74 23.57 25.74 23.59 25.74 23.62 25.74 23.65 25.72 23.66 25.69 23.67 25.66 23.69 25.66 23.71 25.66 23.74 25.66 23.77 25.64 23.78 25.61 23.79 25.58 23.81 25.58 23.83 25.58 23.86 25.58 23.89 25.57 23.89 25.56 23.89 25.54 23.89 25.53 23.93 25.52 23.97 25.5 24.01 25.48 24.02 25.45 24.03 25.42 24.05 25.42 24.07 25.42 24.1 25.42 24.13 25.38 24.15 25.34 24.18 25.3 24.21 25.3 24.23 25.3 24.26 25.3 24.29 25.26 24.31 25.22 24.34 25.18 24.37 25.18 24.39 25.18 24.42 25.18 24.45 25.14 24.47 25.1 24.5 25.06 24.53 25.06 24.55 25.06 24.58 25.06 24.61 25.01 24.65 24.96 24.69 24.9 24.73 24.9 24.75 24.9 24.78 24.9 24.81 24.85 24.85 24.8 24.89 24.74 24.93 24.43 25.37 24.08 25.67 23.71 26.05 23.57 26.19 23.44 26.34 23.31 26.49 23.28 26.49 23.25 26.49 23.23 26.49 23.16 26.57 23.09 26.65 23.03 26.73 23 26.73 22.97 26.73 22.95 26.73 22.89 26.79 22.84 26.86 22.79 26.93 22.76 26.93 22.73 26.93 22.71 26.93 22.67 26.98 22.63 27.03 22.59 27.09 22.56 27.09 22.54 27.09 22.51 27.09 22.48 27.13 22.46 27.17 22.43 27.21 22.4 27.21 22.38 27.21 22.35 27.21 22.32 27.25 22.3 27.29 22.27 27.33 22.24 27.33 22.22 27.33 22.19 27.33 22.16 27.37 22.14 27.41 22.11 27.45 22.08 27.45 22.06 27.45 22.03 27.45 22.02 27.47 22 27.5 21.99 27.53 21.95 27.54 21.91 27.55 21.87 27.57 21.87 27.58 21.87 27.59 21.87 27.61 21.84 27.61 21.82 27.61 21.79 27.61 21.78 27.63 21.76 27.66 21.75 27.69 21.72 27.69 21.7 27.69 21.67 27.69 21.66 27.71 21.64 27.74 21.63 27.77 21.6 27.77 21.58 27.77 21.55 27.77 21.54 27.79 21.52 27.82 21.51 27.85 21.46 27.86 21.4 27.87 21.35 27.89 21.34 27.91 21.32 27.94 21.31 27.97 21.27 27.98 21.23 27.99 21.19 28.01 21.19 28.02 21.19 28.03 21.19 28.05 21.16 28.05 21.14 28.05 21.11 28.05 21.11 28.06 21.11 28.07 21.11 28.09 21.08 28.09 21.06 28.09 21.03 28.09 21.03 28.1 21.03 28.11 21.03 28.13 21 28.13 20.98 28.13 20.95 28.13 20.94 28.15 20.92 28.18 20.91 28.21 20.88 28.21 20.86 28.21 20.83 28.21 20.83 28.22 20.83 28.23 20.83 28.25 20.8 28.25 20.78 28.25 20.75 28.25 20.75 28.26 20.75 28.27 20.75 28.29 20.72 28.29 20.7 28.29 20.67 28.29 20.67 28.3 20.67 28.31 20.67 28.33 20.64 28.33 20.62 28.33 20.59 28.33 20.58 28.35 20.57 28.38 20.55 28.41 20.47 28.43 20.39 28.46 20.31 28.49 20.31 28.5 20.31 28.51 20.31 28.53 20.29 28.53 20.26 28.53 20.23 28.53 20.23 28.54 20.23 28.55 20.23 28.57 20.15 28.59 20.07 28.62 19.99 28.65 19.99 28.66 19.99 28.67 19.99 28.69 19.95 28.69 19.91 28.69 19.87 28.69 19.87 28.7 19.87 28.71 19.87 28.73 19.85 28.73 19.82 28.73 19.79 28.73 19.79 28.74 19.79 28.75 19.79 28.77 19.71 28.79 19.63 28.82 19.55 28.85 19.55 28.86 19.55 28.87 19.55 28.89 19.51 28.89 19.47 28.89 19.43 28.89 19.43 28.9 19.43 28.91 19.43 28.93 19.41 28.93 19.38 28.93 19.35 28.93 19.35 28.94 19.35 28.95 19.35 28.97 19.31 28.97 19.27 28.97 19.23 28.97 19.23 28.98 19.23 28.99 19.23 29.01 19.21 29.01 19.18 29.01 19.15 29.01 19.15 29.02 19.15 29.03 19.15 29.05 19.11 29.05 19.07 29.05 19.03 29.05 19.03 29.06 19.03 29.07 19.03 29.09 19.01 29.09 18.98 29.09 18.95 29.09 18.95 29.1 18.95 29.11 18.95 29.13 18.83 29.15 18.71 29.18 18.59 29.21 18.59 29.22 18.59 29.23 18.59 29.25 18.57 29.25 18.54 29.25 18.52 29.25 18.52 29.26 18.52 29.27 18.52 29.29 18.42 29.3 18.33 29.31 18.24 29.33 18.24 29.34 18.24 29.35 18.24 29.37 18.2 29.37 18.16 29.37 18.12 29.37 18.12 29.38 18.12 29.39 18.12 29.41 18.08 29.41 18.04 29.41 18 29.41 18 29.42 18 29.43 18 29.45 17.96 29.45 17.92 29.45 17.88 29.45 17.88 29.46 17.88 29.47 17.88 29.49 17.82 29.49 17.77 29.49 17.72 29.49 17.72 29.5 17.72 29.51 17.72 29.53 17.66 29.53 17.61 29.53 17.56 29.53 17.56 29.54 17.56 29.55 17.56 29.57 17.5 29.57 17.45 29.57 17.4 29.57 17.4 29.58 17.4 29.59 17.4 29.61 17.34 29.61 17.29 29.61 17.24 29.61 17.24 29.62 17.24 29.63 17.24 29.65 17.18 29.65 17.13 29.65 17.08 29.65 17.08 29.66 17.08 29.67 17.08 29.69 17.01 29.69 16.94 29.69 16.88 29.69 16.88 29.7 16.88 29.71 16.88 29.73 16.81 29.73 16.74 29.73 16.68 29.73 16.68 29.74 16.68 29.75 16.68 29.77 16.61 29.77 16.54 29.77 16.48 29.77 16.48 29.78 16.48 29.79 16.48 29.81 16.4 29.81 16.32 29.81 16.24 29.81 16.24 29.82 16.24 29.83 16.24 29.85 16.05 29.86 15.87 29.87 15.68 29.89 15.68 29.9 15.68 29.91 15.68 29.93 15.15 29.95 14.61 29.98 14.08 30.01 13.62 29.99 13.15 29.98 12.68 29.97 12.68 29.95 12.68 29.94 12.68 29.93 12.56 29.93 12.44 29.93 12.33 29.93 12.33 29.91 12.33 29.9 12.33 29.89 12.22 29.89 12.11 29.89 12.01 29.89 11.38 29.75 10.75 29.62 10.13 29.49 9.18 29.15 8.21 28.83 7.41 28.33 7.39 28.33 7.36 28.33 7.33 28.33 7.33 28.31 7.33 28.3 7.33 28.29 7.31 28.29 7.28 28.29 7.25 28.29 7.25 28.27 7.25 28.26 7.25 28.25 7.23 28.25 7.2 28.25 7.17 28.25 7.17 28.23 7.17 28.22 7.17 28.21 7.15 28.21 7.12 28.21 7.09 28.21 7.08 28.18 7.07 28.15 7.05 28.13 6.97 28.1 6.89 28.07 6.81 28.05 6.81 28.03 6.81 28.02 6.81 28.01 6.77 27.99 6.73 27.98 6.69 27.97 6.68 27.94 6.67 27.91 6.65 27.89 6.6 27.87 6.55 27.86 6.49 27.85 6.49 27.83 6.49 27.82 6.49 27.81 6.45 27.79 6.41 27.78 6.37 27.77 6.36 27.74 6.35 27.71 6.33 27.69 6.31 27.69 6.28 27.69 6.26 27.69 6.24 27.66 6.23 27.63 6.22 27.61 6.19 27.61 6.16 27.61 6.14 27.61 6.14 27.59 6.14 27.58 6.14 27.57 6.1 27.55 6.06 27.54 6.02 27.53 6 27.5 5.99 27.47 5.98 27.45 5.95 27.45 5.92 27.45 5.9 27.45 5.87 27.41 5.84 27.37 5.82 27.33 5.79 27.33 5.76 27.33 5.74 27.33 5.71 27.29 5.68 27.25 5.66 27.21 5.63 27.21 5.6 27.21 5.58 27.21 5.55 27.17 5.52 27.13 5.5 27.09 5.47 27.09 5.44 27.09 5.42 27.09 5.38 27.03 5.34 26.98 5.3 26.93 5.27 26.93 5.24 26.93 5.22 26.93 5.19 26.89 5.16 26.85 5.14 26.81 5.12 26.81 5.11 26.81 5.1 26.81 5.08 26.78 5.07 26.75 5.06 26.73 5.03 26.73 5 26.73 4.98 26.73 4.91 26.65 4.84 26.57 4.78 26.49 4.75 26.49 4.72 26.49 4.7 26.49 4.54 26.31 4.38 26.14 4.22 25.97 3.99 25.75 3.77 25.54 3.54 25.33 3.54 25.3 3.54 25.27 3.54 25.25 3.46 25.18 3.38 25.11 3.3 25.05 3.3 25.02 3.3 24.99 3.3 24.97 3.23 24.91 3.17 24.86 3.1 24.81 3.1 24.78 3.1 24.75 3.1 24.73 3.05 24.69 2.99 24.65 2.94 24.61 2.94 24.58 2.94 24.55 2.94 24.53 2.9 24.5 2.86 24.47 2.82 24.45 2.82 24.42 2.82 24.39 2.82 24.37 2.78 24.34 2.74 24.31 2.7 24.29 2.7 24.26 2.7 24.23 2.7 24.21 2.66 24.18 2.62 24.15 2.58 24.13 2.58 24.1 2.58 24.07 2.58 24.05 2.55 24.03 2.53 24.02 2.5 24.01 2.49 23.97 2.47 23.93 2.46 23.89 2.45 23.89 2.43 23.89 2.42 23.89 2.42 23.86 2.42 23.83 2.42 23.81 2.39 23.79 2.37 23.78 2.34 23.77 2.34 23.74 2.34 23.71 2.34 23.69 2.31 23.67 2.29 23.66 2.26 23.65 2.26 23.62 2.26 23.59 2.26 23.57 2.23 23.55 2.21 23.54 2.18 23.53 2.17 23.47 2.16 23.42 2.14 23.37 2.12 23.35 2.09 23.34 2.06 23.33 2.05 23.29 2.04 23.25 2.02 23.21 2.01 23.21 2 23.21 1.98 23.21 1.96 23.13 1.93 23.05 1.9 22.97 1.88 22.95 1.85 22.94 1.82 22.93 1.82 22.9 1.82 22.87 1.82 22.85 1.81 22.85 1.8 22.85 1.78 22.85 1.78 22.82 1.78 22.79 1.78 22.77 1.77 22.77 1.76 22.77 1.74 22.77 1.74 22.74 1.74 22.71 1.74 22.69 1.73 22.69 1.72 22.69 1.7 22.69 1.7 22.66 1.7 22.63 1.7 22.61 1.21 21.81 0.88 20.84 0.54 19.89 0.53 19.78 0.52 19.67 0.5 19.57 0.49 19.57 0.48 19.57 0.46 19.57 0.46 19.51 0.46 19.46 0.46 19.41 0.45 19.41 0.44 19.41 0.42 19.41 0.42 19.35 0.42 19.3 0.42 19.25 0.41 19.25 0.4 19.25 0.38 19.25 0.38 19.19 0.38 19.14 0.38 19.09 0.37 19.09 0.36 19.09 0.34 19.09 0.34 19.02 0.34 18.95 0.34 18.89 0.33 18.89 0.32 18.89 0.3 18.89 0.29 18.75 0.28 18.62 0.26 18.49 0.25 18.49 0.24 18.49 0.22 18.49 0.22 18.41 0.22 18.33 0.22 18.25 0.21 18.25 0.2 18.25 0.18 18.25 0.18 18.15 0.18 18.06 0.18 17.97 0.17 17.97 0.16 17.97 0.14 17.97 0.13 17.74 0.12 17.51 0.11 17.29 0.09 17.29 0.08 17.29 0.07 17.29 0.07 17.11 0.07 16.94 0.07 16.77-0.02 16.46-0.02 15.55 0.07 15.25 0.07 15.07 0.07 14.9 0.07 14.73 0.08 14.73 0.09 14.73 0.11 14.73 0.12 14.5 0.13 14.27 0.14 14.05 0.16 14.05 0.17 14.05 0.18 14.05 0.18 13.95 0.18 13.86 0.18 13.77 0.24 13.58 0.29 13.31 0.34 13.13 0.34 13.06 0.34 12.99 0.34 12.93 0.36 12.93 0.37 12.93 0.38 12.93 0.38 12.87 0.38 12.82 0.38 12.77 0.4 12.77 0.41 12.77 0.42 12.77 0.42 12.71 0.42 12.66 0.42 12.61 0.44 12.61 0.45 12.61 0.46 12.61 0.46 12.55 0.46 12.5 0.46 12.45 0.48 12.45 0.49 12.45 0.5 12.45 0.5 12.39 0.5 12.34 0.5 12.29 0.52 12.29 0.53 12.29 0.54 12.29 0.54 12.23 0.54 12.18 0.54 12.13 0.56 12.13 0.57 12.13 0.58 12.13 0.58 12.09 0.58 12.04 0.58 12.01 0.6 12.01 0.61 12.01 0.62 12.01 0.62 11.97 0.62 11.93 0.62 11.89 0.64 11.89 0.65 11.89 0.66 11.89 0.66 11.85 0.66 11.81 0.66 11.77 0.68 11.77 0.69 11.77 0.7 11.77 0.7 11.71 0.7 11.66 0.7 11.61 0.72 11.61 0.73 11.61 0.74 11.61 0.74 11.57 0.74 11.52 0.74 11.49 0.76 11.49 0.77 11.49 0.78 11.49 0.78 11.46 0.78 11.43 0.78 11.41 0.8 11.41 0.81 11.41 0.82 11.41 0.85 11.29 0.88 11.17 0.9 11.05 0.92 11.05 0.93 11.05 0.94 11.05 0.94 11.02 0.94 10.99 0.94 10.96 0.96 10.96 0.97 10.96 0.98 10.96 0.98 10.93 0.98 10.89 0.98 10.85 1 10.85 1.01 10.85 1.02 10.85 1.02 10.82 1.02 10.79 1.02 10.77 1.04 10.77 1.05 10.77 1.06 10.77 1.06 10.72 1.06 10.69 1.06 10.65 1.08 10.65 1.09 10.65 1.1 10.65 1.1 10.62 1.1 10.59 1.1 10.57 1.12 10.57 1.13 10.57 1.14 10.57 1.14 10.53 1.14 10.49 1.14 10.44 1.16 10.44 1.17 10.44 1.18 10.44 1.21 10.37 1.24 10.29 1.26 10.21 1.28 10.21 1.29 10.21 1.3 10.21 1.3 10.18 1.3 10.15 1.3 10.13 1.32 10.13 1.33 10.13 1.34 10.13 1.34 10.08 1.34 10.05 1.34 10.01 1.36 10.01 1.37 10.01 1.38 10.01 1.41 9.93 1.44 9.85 1.46 9.77 1.48 9.77 1.49 9.77 1.5 9.77 1.5 9.74 1.5 9.71 1.5 9.69 1.52 9.69 1.53 9.69 1.54 9.69 1.57 9.61 1.6 9.52 1.62 9.45 1.65 9.43 1.68 9.42 1.7 9.41 1.7 9.38 1.7 9.35 1.7 9.33 1.72 9.33 1.73 9.33 1.74 9.33 1.74 9.3 1.74 9.27 1.74 9.24 1.76 9.24 1.77 9.24 1.78 9.24 1.78 9.22 1.78 9.19 1.78 9.16 1.8 9.16 1.81 9.16 1.82 9.16 1.82 9.14 1.82 9.11 1.82 9.08 1.85 9.07 1.88 9.06 1.9 9.05 1.93 8.97 1.96 8.88 1.98 8.81 2 8.81 2.01 8.81 2.02 8.81 2.04 8.76 2.05 8.72 2.06 8.68 2.09 8.67 2.12 8.66 2.14 8.64 2.16 8.59 2.17 8.54 2.18 8.48 2.19 8.48 2.21 8.48 2.22 8.48 2.23 8.45 2.25 8.4 2.26 8.36 2.29 8.35 2.31 8.34 2.34 8.32 2.34 8.3 2.34 8.27 2.34 8.24 2.35 8.24 2.37 8.24 2.38 8.24 2.39 8.2 2.41 8.16 2.42 8.12 2.45 8.11 2.47 8.1 2.5 8.08 2.5 8.06 2.5 8.03 2.5 8 2.54 7.98 2.58 7.95 2.62 7.92 2.62 7.9 2.62 7.87 2.62 7.84 2.65 7.83 2.67 7.82 2.7 7.8 2.7 7.78 2.7 7.75 2.7 7.72 2.74 7.7 2.78 7.67 2.82 7.64 2.82 7.62 2.82 7.59 2.82 7.56 2.86 7.54 2.9 7.51 2.94 7.48 2.94 7.46 2.94 7.43 2.94 7.4 2.99 7.36 3.05 7.32 3.1 7.28 3.1 7.26 3.1 7.23 3.1 7.2 3.14 7.18 3.18 7.15 3.22 7.12 3.22 7.11 3.22 7.1 3.22 7.08 3.25 7.07 3.27 7.06 3.3 7.04 3.3 7.02 3.3 6.99 3.3 6.96 3.38 6.9 3.46 6.83 3.54 6.76 3.54 6.74 3.54 6.71 3.54 6.68 3.74 6.5 3.94 6.31 4.14 6.12 4.32 5.92 4.51 5.72 4.7 5.52 4.72 5.52 4.75 5.52 4.78 5.52 4.84 5.44 4.91 5.36 4.98 5.28 5 5.28 5.03 5.28 5.06 5.28 5.11 5.22 5.16 5.15 5.22 5.08 5.24 5.08 5.27 5.08 5.3 5.08 5.34 5.03 5.38 4.98 5.42 4.92 5.44 4.92 5.47 4.92 5.5 4.92 5.52 4.88 5.55 4.84 5.58 4.8 5.6 4.8 5.63 4.8 5.66 4.8 5.68 4.76 5.71 4.72 5.74 4.68 5.76 4.68 5.79 4.68 5.82 4.68 5.83 4.66 5.84 4.63 5.86 4.6 5.88 4.6 5.91 4.6 5.94 4.6 5.96 4.56 5.99 4.52 6.02 4.48 6.04 4.48 6.07 4.48 6.1 4.48 6.11 4.46 6.12 4.43 6.14 4.4 6.16 4.4 6.19 4.4 6.22 4.4 6.23 4.38 6.24 4.35 6.26 4.32 6.28 4.32 6.31 4.32 6.33 4.32 6.35 4.3 6.36 4.27 6.37 4.24 6.4 4.24 6.43 4.24 6.45 4.24 6.47 4.22 6.48 4.19 6.49 4.16 6.55 4.15 6.6 4.14 6.65 4.12 6.67 4.1 6.68 4.07 6.69 4.04 6.73 4.03 6.77 4.02 6.81 4 6.81 3.99 6.81 3.98 6.81 3.96 6.84 3.96 6.87 3.96 6.89 3.96 6.89 3.95 6.89 3.94 6.89 3.92 6.92 3.92 6.95 3.92 6.97 3.92 6.97 3.91 6.97 3.9 6.97 3.88 7 3.88 7.03 3.88 7.05 3.88 7.07 3.86 7.08 3.83 7.09 3.8 7.12 3.8 7.15 3.8 7.17 3.8 7.17 3.79 7.17 3.78 7.17 3.76 7.2 3.76 7.23 3.76 7.25 3.76 7.25 3.75 7.25 3.74 7.25 3.72 7.28 3.72 7.31 3.72 7.33 3.72 7.33 3.71 7.33 3.7 7.33 3.68 7.36 3.68 7.39 3.68 7.41 3.68 7.43 3.66 7.44 3.63 7.45 3.6 7.48 3.6 7.51 3.6 7.53 3.6 7.53 3.59 7.53 3.58 7.53 3.56 7.61 3.54 7.69 3.51 7.77 3.48 7.77 3.47 7.77 3.46 7.77 3.44 7.85 3.42 7.93 3.39 8.01 3.36 8.01 3.35 8.01 3.34 8.01 3.32 8.05 3.32 8.09 3.32 8.13 3.32 8.13 3.31 8.13 3.3 8.13 3.28 8.16 3.28 8.19 3.28 8.21 3.28 8.21 3.27 8.21 3.26 8.21 3.24 8.29 3.22 8.37 3.19 8.45 3.16 8.45 3.15 8.45 3.14 8.45 3.12 8.49 3.12 8.53 3.12 8.57 3.12 8.57 3.11 8.57 3.1 8.57 3.08 8.6 3.08 8.62 3.08 8.65 3.08 8.65 3.07 8.65 3.06 8.65 3.04 8.69 3.04 8.73 3.04 8.77 3.04 8.77 3.03 8.77 3.02 8.77 3 8.8 3 8.82 3 8.85 3 8.85 2.99 8.85 2.98 8.85 2.96 8.89 2.96 8.93 2.96 8.97 2.96 8.97 2.95 8.97 2.94 8.97 2.92 9 2.92 9.02 2.92 9.05 2.92 9.05 2.91 9.05 2.9 9.05 2.88 9.17 2.86 9.29 2.83 9.41 2.8 9.41 2.79 9.41 2.78 9.41 2.76 9.44 2.76 9.46 2.76 9.49 2.76 9.49 2.75 9.49 2.74 9.49 2.72 9.58 2.71 9.68 2.7 9.77 2.68 9.77 2.67 9.77 2.66 9.77 2.64 9.81 2.64 9.85 2.64 9.89 2.64 9.89 2.63 9.89 2.62 9.89 2.6 9.93 2.6 9.97 2.6 10.01 2.6 10.01 2.59 10.01 2.58 10.01 2.56 10.05 2.56 10.09 2.56 10.13 2.56 10.13 2.55 10.13 2.54 10.13 2.52 10.24 2.51 10.34 2.5 10.45 2.48 10.45 2.47 10.45 2.46 10.45 2.44 10.5 2.44 10.55 2.44 10.61 2.44 10.61 2.43 10.61 2.42 10.61 2.4 10.66 2.4 10.71 2.4 10.77 2.4 10.77 2.39 10.77 2.38 10.77 2.36 10.82 2.36 10.87 2.36 10.93 2.36 10.93 2.35 10.93 2.34 10.93 2.32 10.99 2.32 11.06 2.32 11.13 2.32 11.13 2.31 11.13 2.3 11.13 2.28 11.26 2.27 11.39 2.26 11.53 2.24 11.53 2.23 11.53 2.22 11.53 2.2 11.61 2.2 11.69 2.2 11.77 2.2 11.77 2.19 11.77 2.18 11.77 2.16 11.86 2.16 11.95 2.16 12.05 2.16 12.05 2.15 12.05 2.14 12.05 2.12 12.14 2.12 12.23 2.12 12.33 2.12 12.33 2.11 12.33 2.1 12.33 2.08 12.44 2.08 12.56 2.08 12.68 2.08 12.68 2.07 12.68 2.06 12.68 2.04 12.87 2.04 13.06 2.04 13.24 2.04 13.55 1.96 14.45 1.96 14.76 2.04 14.95 2.04 15.13 2.04 15.32 2.04 15.32 2.06 15.32 2.07 15.32 2.08 15.44 2.08 15.56 2.08 15.68 2.08 15.68 2.1 15.68 2.11 15.68 2.12 15.77 2.12 15.87 2.12 15.96 2.12 15.96 2.14 15.96 2.15 15.96 2.16 16.05 2.16 16.15 2.16 16.24 2.16 16.24 2.18 16.24 2.19 16.24 2.2 16.39 2.22 16.53 2.23 16.68 2.24 16.68 2.26 16.68 2.27 16.68 2.28 16.81 2.3 16.94 2.31 17.08 2.32 17.08 2.34 17.08 2.35 17.08 2.36 17.18 2.38 17.29 2.39 17.4 2.4 17.4 2.42 17.4 2.43 17.4 2.44 17.45 2.44 17.5 2.44 17.56 2.44 17.56 2.46 17.56 2.47 17.56 2.48 17.61 2.48 17.66 2.48 17.72 2.48 17.72 2.5 17.72 2.51 17.72 2.52 17.77 2.52 17.82 2.52 17.88 2.52 17.88 2.54 17.88 2.55 17.88 2.56 17.92 2.56 17.96 2.56 18 2.56 18 2.58 18 2.59 18 2.6 18.04 2.6 18.08 2.6 18.12 2.6 18.12 2.62 18.12 2.63 18.12 2.64 18.16 2.64 18.2 2.64 18.24 2.64 18.24 2.66 18.24 2.67 18.24 2.68 18.29 2.68 18.34 2.68 18.4 2.68 18.4 2.7 18.4 2.71 18.4 2.72 18.44 2.72 18.48 2.72 18.52 2.72 18.52 2.74 18.52 2.75 18.52 2.76 18.58 2.78 18.65 2.79 18.71 2.8 18.71 2.82 18.71 2.83 18.71 2.84 18.67 2.87 18.53 3.04 18.52 3.08 18.52 3.15 18.52 3.22 18.52 3.28 18.5 3.28 18.49 3.28 18.48 3.28 18.48 3.34 18.48 3.39 18.48 3.44 18.46 3.44 18.45 3.44 18.44 3.44 18.44 3.5 18.44 3.55 18.44 3.6 18.42 3.6 18.41 3.6 18.4 3.6 18.4 3.66 18.4 3.71 18.4 3.76 18.38 3.76 18.37 3.76 18.36 3.76 18.36 3.82 18.36 3.87 18.36 3.92 18.34 3.92 18.33 3.92 18.32 3.92 18.32 4.64 18.32 5.36 18.32 6.08ZM 21.75 12.73C 21.79 12.86 21.83 12.99 21.87 13.13 21.88 13.13 21.9 13.13 21.91 13.13 21.91 13.17 21.91 13.21 21.91 13.25 21.92 13.25 21.94 13.25 21.95 13.25 21.95 13.29 21.95 13.33 21.95 13.37 21.96 13.37 21.98 13.37 21.99 13.37 21.99 13.41 21.99 13.45 21.99 13.49 22 13.49 22.02 13.49 22.03 13.49 22.04 13.58 22.06 13.67 22.07 13.77 22.08 13.77 22.1 13.77 22.11 13.77 22.19 14.18 22.27 14.59 22.35 15.01 22.35 15.15 22.35 15.3 22.35 15.45 22.36 15.45 22.38 15.45 22.39 15.45 22.39 15.65 22.39 15.85 22.39 16.05 22.39 16.57 22.35 17.11 22.23 17.53 22.22 17.66 22.2 17.79 22.19 17.93 22.18 17.93 22.16 17.93 22.15 17.93 22.14 18.03 22.12 18.14 22.11 18.25 22.1 18.25 22.08 18.25 22.07 18.25 22.06 18.34 22.04 18.43 22.03 18.53 22.02 18.53 22 18.53 21.99 18.53 21.99 18.57 21.99 18.61 21.99 18.65 21.98 18.65 21.96 18.65 21.95 18.65 21.95 18.69 21.95 18.73 21.95 18.77 21.94 18.77 21.92 18.77 21.91 18.77 21.91 18.81 21.91 18.85 21.91 18.89 21.9 18.89 21.88 18.89 21.87 18.89 21.87 18.91 21.87 18.94 21.87 18.97 21.86 18.97 21.84 18.97 21.83 18.97 21.83 19.01 21.83 19.05 21.83 19.09 21.82 19.09 21.8 19.09 21.79 19.09 21.79 19.11 21.79 19.14 21.79 19.17 21.78 19.17 21.76 19.17 21.75 19.17 21.75 19.21 21.75 19.25 21.75 19.29 21.74 19.29 21.72 19.29 21.71 19.29 21.7 19.34 21.68 19.39 21.67 19.45 21.66 19.45 21.64 19.45 21.63 19.45 21.63 19.47 21.63 19.5 21.63 19.53 21.62 19.53 21.6 19.53 21.59 19.53 21.59 19.57 21.59 19.61 21.59 19.65 21.58 19.65 21.56 19.65 21.55 19.65 21.54 19.7 21.52 19.75 21.51 19.81 21.5 19.81 21.48 19.81 21.47 19.81 21.46 19.86 21.44 19.91 21.43 19.97 21.4 19.98 21.38 19.99 21.35 20.01 21.32 20.09 21.3 20.17 21.27 20.25 21.24 20.26 21.22 20.27 21.19 20.29 21.18 20.34 21.16 20.39 21.15 20.45 21.14 20.45 21.12 20.45 21.11 20.45 21.1 20.49 21.08 20.53 21.07 20.57 21.04 20.58 21.02 20.59 20.99 20.61 20.99 20.63 20.99 20.66 20.99 20.69 20.98 20.69 20.96 20.69 20.95 20.69 20.94 20.73 20.92 20.77 20.91 20.81 20.88 20.82 20.86 20.83 20.83 20.85 20.83 20.87 20.83 20.9 20.83 20.93 20.79 20.95 20.75 20.98 20.71 21.01 20.71 21.03 20.71 21.06 20.71 21.09 20.67 21.11 20.63 21.14 20.59 21.17 20.59 21.19 20.59 21.22 20.59 21.25 20.53 21.3 20.46 21.35 20.39 21.41 20.39 21.43 20.39 21.46 20.39 21.49 20.26 21.61 20.13 21.73 19.99 21.85 19.82 22.03 19.65 22.22 19.47 22.41 19.45 22.41 19.42 22.41 19.39 22.41 19.34 22.47 19.29 22.54 19.23 22.61 19.21 22.61 19.18 22.61 19.15 22.61 19.13 22.65 19.1 22.69 19.07 22.73 19.05 22.73 19.02 22.73 18.99 22.73 18.97 22.77 18.94 22.81 18.91 22.85 18.89 22.85 18.86 22.85 18.83 22.85 18.82 22.87 18.81 22.9 18.79 22.93 18.75 22.94 18.71 22.95 18.67 22.97 18.67 22.98 18.67 22.99 18.67 23.01 18.65 23.01 18.62 23.01 18.59 23.01 18.58 23.03 18.57 23.06 18.55 23.09 18.52 23.1 18.48 23.11 18.44 23.13 18.44 23.14 18.44 23.15 18.44 23.17 18.38 23.18 18.33 23.19 18.28 23.21 18.26 23.23 18.25 23.26 18.24 23.29 18.16 23.31 18.08 23.34 18 23.37 17.98 23.39 17.97 23.42 17.96 23.45 17.9 23.46 17.85 23.47 17.8 23.49 17.8 23.5 17.8 23.51 17.8 23.53 17.74 23.54 17.69 23.55 17.64 23.57 17.64 23.58 17.64 23.59 17.64 23.61 17.6 23.61 17.56 23.61 17.52 23.61 17.52 23.62 17.52 23.63 17.52 23.65 17.49 23.65 17.46 23.65 17.44 23.65 17.44 23.66 17.44 23.67 17.44 23.69 17.38 23.7 17.33 23.71 17.28 23.73 17.28 23.74 17.28 23.75 17.28 23.77 17.24 23.77 17.2 23.77 17.16 23.77 17.16 23.78 17.16 23.79 17.16 23.81 17.13 23.81 17.1 23.81 17.08 23.81 17.08 23.82 17.08 23.83 17.08 23.85 17.01 23.86 16.94 23.87 16.88 23.89 16.88 23.9 16.88 23.91 16.88 23.93 16.84 23.93 16.8 23.93 16.76 23.93 16.76 23.94 16.76 23.95 16.76 23.97 16.72 23.97 16.68 23.97 16.64 23.97 16.64 23.98 16.64 23.99 16.64 24.01 16.6 24.01 16.56 24.01 16.52 24.01 16.52 24.02 16.52 24.03 16.52 24.05 16.43 24.06 16.33 24.07 16.24 24.09 16.24 24.1 16.24 24.11 16.24 24.13 16.13 24.14 16.03 24.15 15.92 24.17 15.92 24.18 15.92 24.19 15.92 24.21 15.85 24.21 15.79 24.21 15.72 24.21 15.72 24.22 15.72 24.23 15.72 24.25 15.65 24.25 15.59 24.25 15.52 24.25 15.52 24.26 15.52 24.27 15.52 24.29 15.44 24.29 15.36 24.29 15.28 24.29 15.28 24.3 15.28 24.31 15.28 24.33 15.19 24.33 15.09 24.33 15 24.33 15 24.34 15 24.35 15 24.37 14.85 24.37 14.71 24.37 14.56 24.37 14.13 24.49 13.09 24.39 12.72 24.29 12.64 24.29 12.56 24.29 12.48 24.29 12.03 24.17 11.58 24.05 11.13 23.93 11.13 23.91 11.13 23.9 11.13 23.89 11.1 23.89 11.07 23.89 11.05 23.89 11.05 23.87 11.05 23.86 11.05 23.85 11.01 23.85 10.97 23.85 10.93 23.85 10.93 23.83 10.93 23.82 10.93 23.81 10.9 23.81 10.87 23.81 10.85 23.81 10.85 23.79 10.85 23.78 10.85 23.77 10.81 23.77 10.77 23.77 10.73 23.77 10.73 23.75 10.73 23.74 10.73 23.73 10.67 23.71 10.62 23.7 10.57 23.69 10.57 23.67 10.57 23.66 10.57 23.65 10.54 23.65 10.51 23.65 10.49 23.65 10.49 23.63 10.49 23.62 10.49 23.61 10.37 23.57 10.25 23.53 10.13 23.49 10.12 23.46 10.1 23.43 10.09 23.41 10.06 23.41 10.04 23.41 10.01 23.41 10.01 23.39 10.01 23.38 10.01 23.37 9.98 23.37 9.96 23.37 9.93 23.37 9.93 23.35 9.93 23.34 9.93 23.33 9.9 23.33 9.88 23.33 9.85 23.33 9.85 23.31 9.85 23.3 9.85 23.29 9.82 23.29 9.8 23.29 9.77 23.29 9.76 23.26 9.74 23.23 9.73 23.21 9.68 23.19 9.62 23.18 9.57 23.17 9.56 23.14 9.54 23.11 9.53 23.09 9.5 23.09 9.48 23.09 9.45 23.09 9.44 23.06 9.42 23.03 9.41 23.01 9.38 23.01 9.36 23.01 9.33 23.01 9.33 22.99 9.33 22.98 9.33 22.97 9.29 22.95 9.25 22.94 9.21 22.93 9.2 22.9 9.18 22.87 9.17 22.85 9.14 22.85 9.12 22.85 9.09 22.85 9.06 22.81 9.04 22.77 9.01 22.73 8.98 22.73 8.96 22.73 8.93 22.73 8.9 22.69 8.88 22.65 8.85 22.61 8.82 22.61 8.8 22.61 8.77 22.61 8.72 22.54 8.66 22.47 8.61 22.41 8.58 22.41 8.56 22.41 8.53 22.41 8.31 22.17 8.08 21.93 7.85 21.69 7.77 21.62 7.69 21.55 7.61 21.49 7.61 21.46 7.61 21.43 7.61 21.41 7.55 21.35 7.48 21.3 7.41 21.25 7.41 21.22 7.41 21.19 7.41 21.17 7.37 21.14 7.33 21.11 7.29 21.09 7.29 21.06 7.29 21.03 7.29 21.01 7.25 20.98 7.21 20.95 7.17 20.93 7.17 20.9 7.17 20.87 7.17 20.85 7.15 20.83 7.12 20.82 7.09 20.81 7.09 20.78 7.09 20.75 7.09 20.73 7.07 20.71 7.04 20.7 7.01 20.69 7.01 20.66 7.01 20.63 7.01 20.61 6.99 20.59 6.96 20.58 6.93 20.57 6.93 20.54 6.93 20.51 6.93 20.49 6.91 20.47 6.88 20.46 6.85 20.45 6.84 20.39 6.83 20.34 6.81 20.29 6.79 20.27 6.76 20.26 6.73 20.25 6.73 20.22 6.73 20.19 6.73 20.17 6.72 20.17 6.71 20.17 6.69 20.17 6.69 20.14 6.69 20.11 6.69 20.09 6.68 20.09 6.67 20.09 6.65 20.09 6.65 20.06 6.65 20.03 6.65 20.01 6.64 20.01 6.63 20.01 6.61 20.01 6.61 19.98 6.61 19.95 6.61 19.93 6.59 19.91 6.56 19.9 6.53 19.89 6.49 19.77 6.45 19.65 6.41 19.53 6.4 19.53 6.39 19.53 6.37 19.53 6.37 19.5 6.37 19.47 6.37 19.45 6.36 19.45 6.35 19.45 6.33 19.45 6.32 19.39 6.31 19.34 6.29 19.29 6.28 19.29 6.27 19.29 6.26 19.29 6.26 19.25 6.26 19.21 6.26 19.17 6.24 19.17 6.23 19.17 6.22 19.17 6.22 19.14 6.22 19.11 6.22 19.09 6.2 19.09 6.19 19.09 6.18 19.09 6.18 19.05 6.18 19.01 6.18 18.97 6.16 18.97 6.15 18.97 6.14 18.97 6.14 18.94 6.14 18.91 6.14 18.89 6.12 18.89 6.11 18.89 6.1 18.89 6.1 18.85 6.1 18.81 6.1 18.77 6.08 18.77 6.07 18.77 6.06 18.77 6.06 18.73 6.06 18.69 6.06 18.65 6.04 18.65 6.03 18.65 6.02 18.65 6.02 18.61 6.02 18.57 6.02 18.53 6 18.53 5.99 18.53 5.98 18.53 5.98 18.47 5.98 18.42 5.98 18.37 5.96 18.37 5.95 18.37 5.94 18.37 5.94 18.33 5.94 18.29 5.94 18.25 5.92 18.25 5.91 18.25 5.9 18.25 5.82 17.83 5.74 17.42 5.66 17.01 5.66 16.86 5.66 16.71 5.66 16.57 5.64 16.57 5.63 16.57 5.62 16.57 5.56 16.37 5.62 15.59 5.66 15.45 5.66 15.3 5.66 15.15 5.66 15.01 5.74 14.72 5.77 14.35 5.86 14.09 5.86 14.03 5.86 13.98 5.86 13.93 5.87 13.93 5.88 13.93 5.9 13.93 5.9 13.87 5.9 13.82 5.9 13.77 5.91 13.77 5.92 13.77 5.94 13.77 5.94 13.73 5.94 13.69 5.94 13.65 5.95 13.65 5.96 13.65 5.98 13.65 5.98 13.59 5.98 13.54 5.98 13.49 5.99 13.49 6 13.49 6.02 13.49 6.02 13.45 6.02 13.41 6.02 13.37 6.03 13.37 6.04 13.37 6.06 13.37 6.06 13.33 6.06 13.29 6.06 13.25 6.07 13.25 6.08 13.25 6.1 13.25 6.1 13.21 6.1 13.17 6.1 13.13 6.11 13.13 6.12 13.13 6.14 13.13 6.14 13.1 6.14 13.07 6.14 13.05 6.15 13.05 6.16 13.05 6.18 13.05 6.18 13.01 6.18 12.97 6.18 12.93 6.19 12.93 6.2 12.93 6.22 12.93 6.22 12.9 6.22 12.87 6.22 12.85 6.23 12.85 6.24 12.85 6.26 12.85 6.26 12.81 6.26 12.77 6.26 12.73 6.27 12.73 6.28 12.73 6.29 12.73 6.31 12.67 6.32 12.62 6.33 12.57 6.35 12.57 6.36 12.57 6.37 12.57 6.37 12.54 6.37 12.51 6.37 12.49 6.39 12.49 6.4 12.49 6.41 12.49 6.41 12.45 6.41 12.41 6.41 12.37 6.43 12.37 6.44 12.37 6.45 12.37 6.47 12.31 6.48 12.26 6.49 12.21 6.51 12.21 6.52 12.21 6.53 12.21 6.53 12.18 6.53 12.15 6.53 12.13 6.56 12.11 6.59 12.1 6.61 12.09 6.61 12.06 6.61 12.03 6.61 12.01 6.63 12.01 6.64 12.01 6.65 12.01 6.65 11.98 6.65 11.95 6.65 11.93 6.67 11.93 6.68 11.93 6.69 11.93 6.69 11.9 6.69 11.87 6.69 11.85 6.71 11.85 6.72 11.85 6.73 11.85 6.73 11.82 6.73 11.79 6.73 11.77 6.76 11.75 6.79 11.74 6.81 11.73 6.83 11.67 6.84 11.62 6.85 11.57 6.87 11.57 6.88 11.57 6.89 11.57 6.91 11.52 6.92 11.49 6.93 11.45 6.96 11.43 6.99 11.42 7.01 11.41 7.01 11.38 7.01 11.35 7.01 11.33 7.03 11.33 7.04 11.33 7.05 11.33 7.07 11.29 7.08 11.25 7.09 11.21 7.12 11.19 7.15 11.18 7.17 11.17 7.17 11.14 7.17 11.11 7.17 11.09 7.21 11.06 7.25 11.03 7.29 11.01 7.29 10.98 7.29 10.95 7.29 10.93 7.33 10.9 7.37 10.87 7.41 10.85 7.41 10.82 7.41 10.79 7.41 10.77 7.48 10.71 7.55 10.66 7.61 10.6 7.61 10.58 7.61 10.55 7.61 10.53 7.77 10.38 7.93 10.23 8.09 10.08 8.24 9.93 8.38 9.77 8.53 9.61 8.56 9.61 8.58 9.61 8.61 9.61 8.66 9.54 8.72 9.47 8.77 9.41 8.8 9.41 8.82 9.41 8.85 9.41 8.88 9.36 8.9 9.33 8.93 9.28 8.96 9.28 8.98 9.28 9.01 9.28 9.04 9.24 9.06 9.2 9.09 9.16 9.12 9.16 9.14 9.16 9.17 9.16 9.18 9.14 9.2 9.11 9.21 9.08 9.25 9.07 9.29 9.06 9.33 9.05 9.33 9.03 9.33 9.02 9.33 9 9.36 9 9.38 9 9.41 9 9.42 8.98 9.44 8.95 9.45 8.92 9.49 8.91 9.53 8.9 9.57 8.88 9.57 8.87 9.57 8.86 9.57 8.84 9.62 8.83 9.68 8.82 9.73 8.81 9.74 8.78 9.76 8.75 9.77 8.72 9.85 8.7 9.93 8.67 10.01 8.64 10.01 8.63 10.01 8.62 10.01 8.6 10.04 8.6 10.06 8.6 10.09 8.6 10.1 8.58 10.12 8.55 10.13 8.52 10.25 8.48 10.37 8.44 10.49 8.4 10.49 8.39 10.49 8.38 10.49 8.36 10.51 8.36 10.54 8.36 10.57 8.36 10.57 8.35 10.57 8.34 10.57 8.32 10.62 8.31 10.67 8.3 10.73 8.28 10.73 8.27 10.73 8.26 10.73 8.24 10.77 8.24 10.81 8.24 10.85 8.24 10.85 8.23 10.85 8.22 10.85 8.2 10.87 8.2 10.9 8.2 10.93 8.2 10.93 8.19 10.93 8.18 10.93 8.16 10.97 8.16 11.01 8.16 11.05 8.16 11.05 8.15 11.05 8.14 11.05 8.12 11.07 8.12 11.1 8.12 11.13 8.12 11.13 8.11 11.13 8.1 11.13 8.08 11.17 8.08 11.21 8.08 11.25 8.08 11.25 8.07 11.25 8.06 11.25 8.04 11.29 8.04 11.33 8.04 11.37 8.04 11.37 8.03 11.37 8.02 11.37 8 11.41 8 11.45 8 11.49 8 11.49 7.99 11.49 7.98 11.49 7.96 11.58 7.95 11.67 7.94 11.77 7.92 11.77 7.91 11.77 7.9 11.77 7.89 11.82 7.89 11.87 7.89 11.93 7.89 11.93 7.87 11.93 7.86 11.93 7.84 11.98 7.84 12.03 7.84 12.09 7.84 12.09 7.83 12.09 7.82 12.09 7.8 12.15 7.8 12.22 7.8 12.29 7.8 12.29 7.79 12.29 7.78 12.29 7.76 12.35 7.76 12.42 7.76 12.48 7.76 12.48 7.75 12.48 7.74 12.48 7.72 12.56 7.72 12.64 7.72 12.72 7.72 12.72 7.71 12.72 7.7 12.72 7.68 12.82 7.68 12.91 7.68 13 7.68 13 7.67 13 7.66 13 7.64 13.15 7.64 13.3 7.64 13.44 7.64 13.58 7.61 14.37 7.55 14.56 7.61 14.56 7.62 14.56 7.63 14.56 7.64 14.71 7.64 14.85 7.64 15 7.64 15 7.66 15 7.67 15 7.68 15.09 7.68 15.19 7.68 15.28 7.68 15.28 7.7 15.28 7.71 15.28 7.72 15.36 7.72 15.44 7.72 15.52 7.72 15.52 7.74 15.52 7.75 15.52 7.76 15.59 7.76 15.65 7.76 15.72 7.76 15.72 7.78 15.72 7.79 15.72 7.8 15.84 7.82 15.96 7.83 16.08 7.84 16.08 7.86 16.08 7.87 16.08 7.89 16.13 7.89 16.19 7.89 16.24 7.89 16.24 7.9 16.24 7.91 16.24 7.92 16.33 7.94 16.43 7.95 16.52 7.96 16.52 7.98 16.52 7.99 16.52 8 16.56 8 16.6 8 16.64 8 16.64 8.02 16.64 8.03 16.64 8.04 16.68 8.04 16.72 8.04 16.76 8.04 16.76 8.06 16.76 8.07 16.76 8.08 16.8 8.08 16.84 8.08 16.88 8.08 16.88 8.1 16.88 8.11 16.88 8.12 16.9 8.12 16.93 8.12 16.96 8.12 16.96 8.14 16.96 8.15 16.96 8.16 17.1 8.23 17.26 8.21 17.36 8.32 17.34 8.32 17.33 8.32 17.32 8.32 17.26 8.43 17.16 8.48 17.08 8.56 16.92 8.72 16.76 8.88 16.6 9.05 16.45 9.2 16.31 9.36 16.16 9.52 16.09 9.58 16.03 9.63 15.96 9.69 15.96 9.71 15.96 9.74 15.96 9.77 15.92 9.78 15.88 9.79 15.84 9.8 15.83 9.83 15.81 9.86 15.8 9.88 15.73 9.94 15.67 9.99 15.6 10.05 15.53 10.14 15.47 10.23 15.4 10.32 15.37 10.32 15.35 10.32 15.32 10.32 15.16 10.5 15 10.67 14.84 10.85 14.71 10.85 14.57 10.85 14.44 10.85 14.39 10.8 13.69 10.77 13.56 10.8 13.56 10.82 13.56 10.83 13.56 10.85 13.44 10.85 13.32 10.85 13.2 10.85 13.2 10.86 13.2 10.87 13.2 10.89 13.14 10.89 13.07 10.89 13 10.89 13 10.9 13 10.91 13 10.93 12.94 10.93 12.87 10.93 12.8 10.93 12.8 10.94 12.8 10.95 12.8 10.96 12.75 10.96 12.7 10.96 12.64 10.96 12.64 10.98 12.64 10.99 12.64 11.01 12.6 11.01 12.56 11.01 12.52 11.01 12.52 11.02 12.52 11.03 12.52 11.05 12.47 11.05 12.42 11.05 12.37 11.05 12.37 11.06 12.37 11.07 12.37 11.09 12.34 11.09 12.31 11.09 12.29 11.09 12.29 11.1 12.29 11.11 12.29 11.12 12.21 11.14 12.13 11.15 12.05 11.17 12.05 11.18 12.05 11.19 12.05 11.21 11.99 11.22 11.94 11.23 11.89 11.25 11.89 11.26 11.89 11.27 11.89 11.29 11.85 11.29 11.81 11.29 11.77 11.29 11.77 11.3 11.77 11.31 11.77 11.33 11.74 11.33 11.71 11.33 11.69 11.33 11.69 11.34 11.69 11.35 11.69 11.37 11.66 11.37 11.63 11.37 11.61 11.37 11.59 11.39 11.58 11.42 11.57 11.45 11.49 11.47 11.41 11.5 11.33 11.52 11.31 11.55 11.3 11.58 11.29 11.61 11.23 11.62 11.18 11.63 11.13 11.65 11.1 11.69 11.07 11.73 11.05 11.77 11.02 11.77 10.99 11.77 10.97 11.77 10.95 11.79 10.94 11.82 10.93 11.85 10.9 11.85 10.87 11.85 10.85 11.85 10.81 11.9 10.77 11.95 10.73 12.01 9.98 12.54 9.47 13.34 9.09 14.25 9.08 14.34 9.06 14.43 9.05 14.53 9.04 14.53 9.02 14.53 9.01 14.53 9.01 14.57 9.01 14.61 9.01 14.65 9 14.65 8.98 14.65 8.97 14.65 8.97 14.7 8.97 14.75 8.97 14.81 8.96 14.81 8.94 14.81 8.93 14.81 8.93 14.87 8.93 14.94 8.93 15.01 8.77 15.55 8.76 16.47 8.93 17.01 8.94 17.13 8.96 17.25 8.97 17.37 8.98 17.37 9 17.37 9.01 17.37 9.01 17.41 9.01 17.45 9.01 17.49 9.02 17.49 9.04 17.49 9.05 17.49 9.06 17.58 9.08 17.67 9.09 17.77 9.1 17.77 9.12 17.77 9.13 17.77 9.13 17.79 9.13 17.82 9.13 17.85 9.14 17.85 9.16 17.85 9.17 17.85 9.17 17.89 9.17 17.93 9.17 17.97 9.18 17.97 9.2 17.97 9.21 17.97 9.22 18.02 9.24 18.07 9.25 18.13 9.26 18.13 9.28 18.13 9.29 18.13 9.33 18.25 9.37 18.37 9.41 18.49 9.44 18.5 9.46 18.51 9.49 18.53 9.5 18.58 9.52 18.63 9.53 18.69 9.56 18.7 9.58 18.71 9.61 18.73 9.62 18.78 9.64 18.83 9.65 18.89 9.69 18.91 9.73 18.94 9.77 18.97 9.78 19.01 9.8 19.05 9.81 19.09 9.82 19.09 9.84 19.09 9.85 19.09 9.85 19.11 9.85 19.14 9.85 19.17 9.9 19.21 9.96 19.25 10.01 19.29 10.66 20.19 11.62 20.71 12.8 21.09 12.87 21.09 12.94 21.09 13 21.09 13 21.1 13 21.11 13 21.13 13.07 21.13 13.14 21.13 13.2 21.13 13.2 21.14 13.2 21.15 13.2 21.17 13.32 21.17 13.44 21.17 13.56 21.17 13.56 21.18 13.56 21.19 13.56 21.21 13.76 21.26 14.3 21.21 14.44 21.17 14.56 21.17 14.68 21.17 14.8 21.17 14.8 21.15 14.8 21.14 14.8 21.13 14.87 21.13 14.93 21.13 15 21.13 15 21.11 15 21.1 15 21.09 15.07 21.09 15.13 21.09 15.2 21.09 15.2 21.07 15.2 21.06 15.2 21.05 15.25 21.05 15.31 21.05 15.36 21.05 15.36 21.03 15.36 21.02 15.36 21.01 15.4 21.01 15.44 21.01 15.48 21.01 15.48 20.99 15.48 20.98 15.48 20.97 15.53 20.97 15.59 20.97 15.64 20.97 15.64 20.95 15.64 20.94 15.64 20.93 15.67 20.93 15.69 20.93 15.72 20.93 15.72 20.91 15.72 20.9 15.72 20.89 15.8 20.87 15.88 20.86 15.96 20.85 15.96 20.83 15.96 20.82 15.96 20.81 16.01 20.79 16.07 20.78 16.12 20.77 16.12 20.75 16.12 20.74 16.12 20.73 16.24 20.69 16.36 20.65 16.48 20.61 16.49 20.58 16.5 20.55 16.52 20.53 16.57 20.51 16.62 20.5 16.68 20.49 16.69 20.46 16.7 20.43 16.72 20.41 16.74 20.41 16.77 20.41 16.8 20.41 16.8 20.39 16.8 20.38 16.8 20.37 16.82 20.37 16.85 20.37 16.88 20.37 16.9 20.33 16.93 20.29 16.96 20.25 16.98 20.25 17.01 20.25 17.04 20.25 17.05 20.22 17.06 20.19 17.08 20.17 17.1 20.17 17.13 20.17 17.16 20.17 17.2 20.11 17.24 20.06 17.28 20.01 17.3 20.01 17.33 20.01 17.36 20.01 17.48 19.87 17.6 19.74 17.72 19.61 17.81 19.53 17.9 19.45 18 19.37 18 19.34 18 19.31 18 19.29 18.05 19.25 18.1 19.21 18.16 19.17 18.16 19.14 18.16 19.11 18.16 19.09 18.18 19.07 18.21 19.06 18.24 19.05 18.24 19.02 18.24 18.99 18.24 18.97 18.28 18.94 18.32 18.91 18.36 18.89 18.36 18.86 18.36 18.83 18.36 18.81 18.37 18.81 18.38 18.81 18.4 18.81 18.4 18.78 18.4 18.75 18.4 18.73 18.42 18.71 18.45 18.7 18.48 18.69 18.49 18.63 18.5 18.58 18.52 18.53 18.54 18.51 18.57 18.5 18.59 18.49 18.59 18.46 18.59 18.43 18.59 18.41 18.61 18.41 18.62 18.41 18.63 18.41 18.65 18.35 18.66 18.3 18.67 18.25 18.69 18.25 18.7 18.25 18.71 18.25 18.71 18.21 18.71 18.17 18.71 18.13 18.73 18.13 18.74 18.13 18.75 18.13 18.77 18.07 18.78 18.02 18.79 17.97 18.81 17.97 18.82 17.97 18.83 17.97 18.85 17.9 18.86 17.83 18.87 17.77 18.89 17.77 18.9 17.77 18.91 17.77 18.93 17.67 18.94 17.58 18.95 17.49 18.97 17.49 18.98 17.49 18.99 17.49 18.99 17.45 18.99 17.41 18.99 17.37 19.01 17.37 19.02 17.37 19.03 17.37 19.03 17.31 19.03 17.26 19.03 17.21 19.05 17.21 19.06 17.21 19.07 17.21 19.07 17.14 19.07 17.07 19.07 17.01 19.09 17.01 19.1 17.01 19.11 17.01 19.11 16.94 19.11 16.87 19.11 16.81 19.13 16.81 19.14 16.81 19.15 16.81 19.15 16.69 19.15 16.57 19.15 16.45 19.26 16.08 19.15 15.6 19.15 15.21 19.25 15.14 19.34 15.07 19.43 15.01 19.45 14.97 19.46 14.93 19.47 14.89 19.63 14.75 19.79 14.62 19.95 14.49 19.95 14.46 19.95 14.43 19.95 14.41 19.97 14.41 19.98 14.41 19.99 14.41 20.05 14.34 20.1 14.27 20.15 14.21 20.18 14.21 20.21 14.21 20.23 14.21 20.25 14.18 20.26 14.15 20.27 14.13 20.29 14.13 20.3 14.13 20.31 14.13 20.43 13.98 20.55 13.83 20.67 13.69 20.7 13.69 20.72 13.69 20.75 13.69 20.78 13.65 20.8 13.61 20.83 13.57 20.86 13.55 20.88 13.54 20.91 13.53 20.91 13.5 20.91 13.47 20.91 13.45 20.99 13.38 21.07 13.31 21.15 13.25 21.16 13.22 21.18 13.19 21.19 13.17 21.22 13.17 21.24 13.17 21.27 13.17 21.3 13.13 21.32 13.09 21.35 13.05 21.38 13.03 21.4 13.02 21.43 13.01 21.43 12.98 21.43 12.95 21.43 12.93 21.44 12.93 21.46 12.93 21.47 12.93 21.52 12.86 21.58 12.79 21.63 12.73 21.67 12.73 21.71 12.73 21.75 12.73Z" fill="rgb(255,255,255)"/></svg>